<svg xmlns="http://www.w3.org/2000/svg" width="1395.38" height="1804.554" viewBox="0 0 1395.38 1804.554"><g transform="translate(-344.64 159.842)"><path d="M860.366,657.089c-341.6,0-618.525,276.923-618.525,618.524s276.924,618.524,618.525,618.524,618.525-276.923,618.525-618.524S1201.969,657.089,860.366,657.089m0,1042.046c-233.9,0-423.522-189.617-423.522-423.522S626.463,852.091,860.366,852.091s423.523,189.618,423.523,423.522-189.618,423.522-423.523,423.522" transform="translate(102.799 -249.425)" fill="#f8f8f8"/><path d="M1047.182,0C930.683,0,836.24,94.438,836.24,210.937S930.683,421.88,1047.182,421.88s210.942-94.443,210.942-210.942S1163.683,0,1047.182,0m0,315.891a104.948,104.948,0,1,1,104.948-104.948,104.948,104.948,0,0,1-104.948,104.948" transform="translate(481.894 -159.837)" fill="#ffdee7"/><path d="M1748.328,553.239s-369.594-97.283-481.246,311.311c-80.121,293.2-86.95,453.066-253.135,533.674S751,1496.073,741.072,1583.346" transform="translate(-140.129 -138.176)" fill="none" stroke="#ccc" stroke-miterlimit="10" stroke-width="1"/><path d="M988.985,1769.235s-126.9-335.926,207.989-511.461c226.06-118.488,120.072-520.744,266.59-648.785C1579.75,507.455,1731.306,726.7,1731.306,726.7" transform="translate(-123.107 -124.905)" fill="none" stroke="#d3d3d3" stroke-miterlimit="10" stroke-width="1"/><path d="M1016.051,1481.948s2.932-211.9,199.042-350.819,119.354-378.883,232.13-415.368,225.538,120.681,225.538,120.681" transform="translate(57.82 -81.345)" fill="none" stroke="#d5d5d5" stroke-miterlimit="10" stroke-width="1"/><path d="M1091.056,1329.524s-13.57-336.417,124.388-379.825S1471,1274.029,1471,1274.029" transform="translate(41.61 -1.149)" fill="none" stroke="#d8d8d8" stroke-miterlimit="10" stroke-width="1"/><path d="M1319.914,545.224l-50.051,50.051-50.052-50.051-37.356,37.356,50.052,50.051-50.052,50.051,37.356,37.356,50.052-50.051,50.051,50.051,37.356-37.355-50.052-50.051,50.052-50.051Z" transform="translate(274.608 -68.459)" fill="#242424"/></g></svg>