<?xml version="1.0" encoding="utf-8"?>
<!-- Generator: Adobe Illustrator 25.0.0, SVG Export Plug-In . SVG Version: 6.00 Build 0)  -->
<svg version="1.1" id="Layer_1" xmlns="http://www.w3.org/2000/svg" xmlns:xlink="http://www.w3.org/1999/xlink" x="0px" y="0px"
	 viewBox="0 0 1579.3 1725.6" style="enable-background:new 0 0 1579.3 1725.6;" xml:space="preserve">
<style type="text/css">
	.st0{fill:#F8F8F8;}
	.st1{fill:#FFDEE7;}
	.st2{fill:none;stroke:#CCCCCC;stroke-miterlimit:10;}
	.st3{fill:none;stroke:#D3D3D3;stroke-miterlimit:10;}
	.st4{fill:none;stroke:#D5D5D5;stroke-miterlimit:10;}
	.st5{fill:none;stroke:#D8D8D8;stroke-miterlimit:10;}
	.st6{fill:#242424;}
</style>
<g transform="translate(3086.658 1178.776) rotate(129)">
	<path class="st0" d="M1105.5,1790c-304.2,0-550.8,246.6-550.8,550.8c0,304.2,246.6,550.8,550.8,550.8
		c304.2,0,550.8-246.6,550.8-550.8S1409.7,1790,1105.5,1790 M1105.5,2717.9c-208.3,0-377.1-168.8-377.1-377.1
		s168.8-377.1,377.1-377.1c208.3,0,377.1,168.8,377.1,377.1C1482.6,2549.1,1313.8,2717.9,1105.5,2717.9"/>
	<path class="st1" d="M1609.4,1284.7c-103.7,0-187.8,84.1-187.8,187.8s84.1,187.8,187.8,187.8c103.7,0,187.8-84.1,187.8-187.8
		C1797.3,1368.8,1713.2,1284.7,1609.4,1284.7 M1609.4,1566c-51.6,0-93.5-41.8-93.5-93.5s41.8-93.5,93.5-93.5
		c51.6,0,93.5,41.8,93.5,93.5S1661,1566,1609.4,1566"/>
	<path class="st2" d="M1679.9,1796.6c0,0-329.1-86.6-428.5,277.2c-71.3,261.1-77.4,403.4-225.4,475.2s-234.1,87.1-243,164.8"/>
	<path class="st3" d="M1018.9,2891.2c0,0-113-299.1,185.2-455.4c201.3-105.5,106.9-463.7,237.4-577.7
		c103.5-90.4,238.4,104.8,238.4,104.8"/>
	<path class="st4" d="M1204.1,2674.2c0,0,2.6-188.7,177.2-312.4c174.6-123.7,106.3-337.4,206.7-369.9s200.8,107.5,200.8,107.5"/>
	<path class="st5" d="M1256.4,2609.9c0,0-12.1-299.6,110.8-338.2c122.8-38.7,227.6,288.8,227.6,288.8"/>
	<path class="st6" d="M934.1,1319.3l-44.6,44.6l-44.6-44.6l-33.3,33.3l44.6,44.6l-44.6,44.6l33.3,33.3l44.6-44.6l44.6,44.6
		l33.3-33.3l-44.6-44.6l44.6-44.6L934.1,1319.3z"/>
</g>
</svg>
