<svg xmlns="http://www.w3.org/2000/svg" width="40"  viewBox="0 0 32.3 40.8"><path d="M25.8,8.6a1.69,1.69,0,0,1,1,.3.63.63,0,0,0,.8-.2.54.54,0,0,0-.2-.8,3,3,0,0,0-3.3,4.9,3.37,3.37,0,0,0,1.7.5,2.72,2.72,0,0,0,1.7-.6l.3-.3a.57.57,0,1,0-.9-.7h0l-.1.1a1.61,1.61,0,0,1-.9.3,1.71,1.71,0,0,1-1.6-1.9A1.44,1.44,0,0,1,25.8,8.6Z" transform="translate(-5.3 -1.1)" fill="#dd003b"/><path d="M31.7,13.3h0a.75.75,0,0,0,.7-.5L34,8.2a.63.63,0,1,0-1.2-.4h0l-1.1,3.3L30.5,7.8a.63.63,0,0,0-.8-.4.68.68,0,0,0-.4.8l1.6,4.7c.3.2.5.4.8.4Z" transform="translate(-5.3 -1.1)" fill="#dd003b"/><path d="M33.8,20.5H22.6a.6.6,0,1,0,0,1.2H33.8a.6.6,0,1,0,0-1.2Z" transform="translate(-5.3 -1.1)" fill="#dd003b"/><path d="M22.6,25.4h5.6a.6.6,0,0,0,0-1.2H22.6a.6.6,0,1,0,0,1.2Z" transform="translate(-5.3 -1.1)" fill="#dd003b"/><path d="M33.8,27.8H22.6a.6.6,0,1,0,0,1.2H33.8a.6.6,0,0,0,0-1.2Z" transform="translate(-5.3 -1.1)" fill="#dd003b"/><path d="M34.4,32.1a.65.65,0,0,0-.6-.6H22.6a.6.6,0,0,0,0,1.2H33.8A.65.65,0,0,0,34.4,32.1Z" transform="translate(-5.3 -1.1)" fill="#dd003b"/><path d="M22.6,35.3a.6.6,0,0,0,0,1.2h5.6a.6.6,0,0,0,0-1.2Z" transform="translate(-5.3 -1.1)" fill="#dd003b"/><path d="M33.8,16.9H22.6a.6.6,0,0,0,0,1.2H33.8a.65.65,0,0,0,.6-.6.58.58,0,0,0-.6-.6Z" transform="translate(-5.3 -1.1)" fill="#dd003b"/><path d="M37,9.5a.65.65,0,0,0,.6-.6V3.4a2.26,2.26,0,0,0-2.3-2.3H7.6A2.26,2.26,0,0,0,5.3,3.4V39.6a2.26,2.26,0,0,0,2.3,2.3H35.3a2.26,2.26,0,0,0,2.3-2.3V11.7a.6.6,0,0,0-1.2,0V39.6a1.11,1.11,0,0,1-1.1,1.1H20.1V2.3H35.3a1.11,1.11,0,0,1,1.1,1.1h0V8.9A.65.65,0,0,0,37,9.5ZM18.9,40.7H7.6a1.11,1.11,0,0,1-1.1-1.1V3.4A1.11,1.11,0,0,1,7.6,2.3H18.8V40.7Z" transform="translate(-5.3 -1.1)" fill="#dd003b"/><path d="M12.7,15.1a4.75,4.75,0,0,0,.1-9.5A4.72,4.72,0,0,0,8,10.3v.1A4.83,4.83,0,0,0,12.7,15.1Zm0-1.2a3.32,3.32,0,0,1-2.1-.7,2.37,2.37,0,0,1,1.3-1.1,2.92,2.92,0,0,0,.9.2,2.92,2.92,0,0,0,.9-.2,2.54,2.54,0,0,1,1.2,1.1,4.39,4.39,0,0,1-2.2.7Zm-.8-3.7a.9.9,0,1,1,.9.9h0a.9.9,0,0,1-.9-.9Zm.8-3.4a3.5,3.5,0,0,1,3.5,3.6,3.61,3.61,0,0,1-.6,2,5.73,5.73,0,0,0-1.1-1.1,2,2,0,0,0-.8-2.8,2.09,2.09,0,0,0-2.8.8,1.82,1.82,0,0,0,0,2,2.35,2.35,0,0,0-1.1,1.1,3.61,3.61,0,0,1-.6-2,3.56,3.56,0,0,1,3.5-3.6Z" transform="translate(-5.3 -1.1)" fill="#dd003b"/><path d="M9.3,23.8h6.9a1.32,1.32,0,0,0,1.3-1.3V20.8a1.32,1.32,0,0,0-1.3-1.3H9.3A1.32,1.32,0,0,0,8,20.8v1.7a1.26,1.26,0,0,0,1.3,1.3Zm-.1-3c0-.1,0-.1.1-.1h6.9a.1.1,0,0,1,.1.1v1.7c0,.1,0,.1-.1.1H9.3c-.1,0-.1,0-.1-.1Z" transform="translate(-5.3 -1.1)" fill="#dd003b"/><path d="M9.3,30.1h.6a.6.6,0,0,0,0-1.2H9.3c-.1,0-.1,0-.1-.1V27.1c0-.1,0-.1.1-.1h6.9a.1.1,0,0,1,.1.1h0v1.7c0,.1,0,.1-.1.1H12.7a.6.6,0,1,0,0,1.2h3.5a1.32,1.32,0,0,0,1.3-1.3V27.1a1.32,1.32,0,0,0-1.3-1.3H9.3A1.32,1.32,0,0,0,8,27.1v1.7a1.26,1.26,0,0,0,1.3,1.3Z" transform="translate(-5.3 -1.1)" fill="#dd003b"/><path d="M9.3,36.5h6.9a1.32,1.32,0,0,0,1.3-1.3V33.5a1.32,1.32,0,0,0-1.3-1.3H9.3A1.32,1.32,0,0,0,8,33.5v1.7a1.26,1.26,0,0,0,1.3,1.3Zm-.1-3c0-.1,0-.1.1-.1h6.9a.1.1,0,0,1,.1.1h0v1.7c0,.1,0,.1-.1.1H9.3c-.1,0-.1,0-.1-.1Z" transform="translate(-5.3 -1.1)" fill="#dd003b"/></svg>