<?xml version="1.0" encoding="utf-8"?>
<!-- Generator: Adobe Illustrator 25.2.1, SVG Export Plug-In . SVG Version: 6.00 Build 0)  -->
<svg version="1.1" id="Layer_1" xmlns="http://www.w3.org/2000/svg" xmlns:xlink="http://www.w3.org/1999/xlink" x="0px" y="0px"
	 viewBox="0 0 102 116.2" style="enable-background:new 0 0 102 116.2;" xml:space="preserve">
<style type="text/css">
	.st0{fill:#FFFFFF;}
	.st1{fill:#DD003B;}
</style>
<rect x="0" y="0" class="st0" width="102" height="115.9"/>
<path class="st1" d="M100.5,0.2L51.7,35.5c-0.3,0.2-0.8,0.2-1.1,0L1.5,0.2C1.3,0.1,1.1,0,0.9,0C0.4,0,0,0.4,0,0.9c0,0,0,0,0,0v99.2
	c0,0.5,0.4,0.9,0.9,0.9c0,0,0,0,0,0c0.2,0,0.4-0.1,0.6-0.2l47.9-36.5c0.3-0.2,0.8-0.3,1.1,0l50,36.5c0.4,0.3,1,0.2,1.3-0.2
	c0.1-0.2,0.2-0.3,0.2-0.5V1c0-0.5-0.4-0.9-0.9-0.9C100.9,0.1,100.7,0.1,100.5,0.2z M99.2,97.6L50.5,62c0,0,0,0,0,0L21.9,39
	c-0.4-0.3-1-0.3-1.3,0.1c-0.1,0.2-0.2,0.4-0.2,0.6v16.2c0,0.5,0.4,0.9,0.9,0.9c0.5,0,0.9-0.4,0.9-0.9V42.7c0-0.3,0.2-0.5,0.5-0.5
	c0.1,0,0.2,0,0.3,0.1L47.5,62c0.4,0.3,0.5,0.9,0.1,1.3c0,0.1-0.1,0.1-0.2,0.2L2.7,97.5c-0.3,0.2-0.6,0.1-0.8-0.1
	c-0.1-0.1-0.1-0.2-0.1-0.3V4c0-0.4,0.3-0.7,0.7-0.6c0.1,0,0.3,0,0.4,0.1l47.9,34.4l29.7,21.9c0.4,0.3,1,0.2,1.3-0.2
	c0.1-0.2,0.2-0.3,0.2-0.5L82,42.8c0-0.5-0.4-0.9-0.9-0.9c0,0,0,0,0,0h0c-0.5,0-0.9,0.4-0.9,0.9L80,56.1c0,0.3-0.3,0.6-0.6,0.6
	c-0.1,0-0.2,0-0.3-0.1L53.7,37.8c-0.4-0.3-0.5-0.9-0.2-1.3c0.1-0.1,0.1-0.1,0.2-0.2L99,3.6c0.3-0.2,0.8-0.2,1,0.2
	c0.1,0.1,0.1,0.3,0.1,0.4l0,93c0,0.3-0.3,0.6-0.6,0.6C99.4,97.7,99.3,97.7,99.2,97.6L99.2,97.6z"/>
<g transform="translate(0 109.263)">
	<path class="st1" d="M0.1,6.7C0,6.7,0,6.6,0,6.6V0.3c0-0.1,0-0.1,0.1-0.2c0,0,0.1-0.1,0.2-0.1H1c0.1,0,0.1,0,0.2,0
		c0,0,0.1,0.1,0.1,0.1L4,4.5V0.3c0-0.1,0-0.1,0.1-0.2c0,0,0.1-0.1,0.2-0.1H5c0.1,0,0.2,0.1,0.2,0.2c0,0,0,0,0,0v6.2
		c0,0.1,0,0.1-0.1,0.2c0,0-0.1,0.1-0.2,0.1H4.3C4.2,6.8,4.1,6.7,4,6.6L1.3,2.4v4.1c0,0.1,0,0.1-0.1,0.2c0,0-0.1,0.1-0.2,0.1H0.2
		C0.2,6.8,0.1,6.8,0.1,6.7z"/>
	<path class="st1" d="M16.7,6.2c-0.5-0.5-0.8-1.2-0.8-2c0-0.2,0-0.5,0-0.8s0-0.6,0-0.8c0-0.7,0.3-1.4,0.8-2c1.2-0.9,2.8-0.9,4,0
		c0.5,0.5,0.8,1.2,0.8,2c0,0.4,0,0.6,0,0.8s0,0.4,0,0.8c0,0.7-0.3,1.4-0.8,2C19.6,7.1,17.9,7.1,16.7,6.2L16.7,6.2z M19.8,5.4
		c0.3-0.3,0.4-0.8,0.4-1.2c0-0.4,0-0.6,0-0.8c0-0.1,0-0.4,0-0.8c0-0.4-0.1-0.9-0.4-1.2c-0.6-0.5-1.5-0.5-2,0
		c-0.3,0.3-0.4,0.8-0.4,1.2c0,0.2,0,0.4,0,0.8c0,0.3,0,0.6,0,0.8c0,0.4,0.1,0.9,0.4,1.2C18.3,5.9,19.2,5.9,19.8,5.4L19.8,5.4z"/>
	<path class="st1" d="M32.9,6.2c-0.5-0.5-0.8-1.3-0.7-2V0.3c0-0.1,0-0.1,0.1-0.2c0,0,0.1-0.1,0.2-0.1h0.9c0.1,0,0.1,0,0.2,0.1
		c0,0,0.1,0.1,0.1,0.2v3.9c0,0.4,0.1,0.8,0.4,1.2c0.3,0.3,0.7,0.4,1,0.4c0.4,0,0.8-0.1,1-0.4c0.3-0.3,0.4-0.7,0.4-1.2V0.3
		c0-0.1,0.1-0.2,0.2-0.2c0,0,0,0,0,0h0.9c0.1,0,0.1,0,0.2,0.1c0,0,0.1,0.1,0.1,0.2v3.9c0.1,0.7-0.2,1.5-0.7,2
		C35.7,7.1,34.1,7.1,32.9,6.2L32.9,6.2z"/>
	<path class="st1" d="M49.4,6.6C49,6.5,48.7,6.3,48.4,6c-0.2-0.3-0.3-0.6-0.3-0.9c0-0.1,0.1-0.2,0.2-0.2h0.9c0.1,0,0.1,0,0.2,0
		c0,0,0.1,0.1,0.1,0.1c0.1,0.2,0.2,0.4,0.4,0.5c0.3,0.2,0.6,0.2,0.9,0.2c0.4,0,0.7-0.1,1-0.2c0.2-0.1,0.4-0.4,0.3-0.6
		c0-0.2-0.1-0.3-0.2-0.4c-0.2-0.1-0.3-0.2-0.5-0.3c-0.2-0.1-0.6-0.2-1-0.3c-0.6-0.1-1.2-0.4-1.7-0.7c-0.4-0.3-0.6-0.8-0.5-1.3
		c0-0.4,0.1-0.7,0.3-1c0.2-0.3,0.5-0.5,0.9-0.7C49.9,0.1,50.3,0,50.8,0c0.5,0,0.9,0.1,1.4,0.3C52.5,0.4,52.8,0.7,53,1
		c0.2,0.2,0.3,0.5,0.3,0.8c0,0.1-0.1,0.2-0.2,0.2h-0.9C52.1,2,52,1.9,52,1.8c0-0.2-0.2-0.4-0.4-0.5c-0.2-0.1-0.5-0.2-0.8-0.2
		c-0.3,0-0.6,0.1-0.8,0.2c-0.2,0.1-0.3,0.3-0.3,0.6c0,0.2,0,0.3,0.2,0.4c0.1,0.1,0.3,0.2,0.5,0.3c0.3,0.1,0.6,0.2,1,0.3
		c0.5,0.1,0.9,0.2,1.3,0.4c0.3,0.1,0.6,0.3,0.7,0.6c0.2,0.3,0.3,0.6,0.2,0.9c0,0.4-0.1,0.8-0.3,1.1c-0.2,0.3-0.6,0.6-1,0.7
		c-0.5,0.2-0.9,0.2-1.4,0.2C50.3,6.9,49.8,6.8,49.4,6.6z"/>
	<path class="st1" d="M64.1,6.7c0,0-0.1-0.1-0.1-0.2V0.3c0-0.1,0-0.1,0.1-0.2c0,0,0.1-0.1,0.2-0.1h0.9c0.1,0,0.1,0,0.2,0.1
		c0,0,0.1,0.1,0.1,0.2v2.5h2.8V0.3c0-0.1,0-0.1,0.1-0.2c0,0,0.1-0.1,0.2-0.1h0.9c0.1,0,0.2,0.1,0.2,0.2c0,0,0,0,0,0v6.2
		c0,0.1,0,0.1-0.1,0.2c0,0-0.1,0.1-0.2,0.1h-0.9c-0.1,0-0.1,0-0.2-0.1c0,0-0.1-0.1-0.1-0.2V4h-2.8v2.6c0,0.1,0,0.1-0.1,0.2
		c0,0-0.1,0.1-0.2,0.1h-0.9C64.2,6.8,64.2,6.8,64.1,6.7z"/>
	<path class="st1" d="M79.9,6.7c0,0-0.1-0.1-0.1-0.1l0-0.1l2.3-6.2c0-0.2,0.2-0.3,0.3-0.2h1c0.2,0,0.3,0.1,0.3,0.2l2.3,6.2
		c0,0,0,0.1,0,0.1c0,0.1,0,0.1-0.1,0.1c0,0-0.1,0.1-0.1,0.1h-0.8c-0.1,0-0.1,0-0.2-0.1c0,0-0.1-0.1-0.1-0.1l-0.5-1.2h-2.8l-0.4,1.2
		c0,0.1-0.2,0.2-0.3,0.2h-0.8C80,6.8,79.9,6.8,79.9,6.7z M84.1,4.3l-1.1-3l-1.1,3H84.1z"/>
	<path class="st1" d="M96.6,6.7c0,0-0.1-0.1-0.1-0.2V0.3c0-0.1,0-0.1,0.1-0.2c0,0,0.1-0.1,0.2-0.1h2.3c1.9,0,2.8,0.9,2.9,2.6
		c0,0.4,0,0.6,0,0.7s0,0.4,0,0.7c0,0.7-0.2,1.4-0.7,2c-0.6,0.5-1.3,0.7-2.1,0.6h-2.4C96.7,6.8,96.6,6.8,96.6,6.7z M99.1,5.7
		c0.4,0,0.8-0.1,1.2-0.4c0.3-0.3,0.4-0.8,0.4-1.2c0-0.4,0-0.6,0-0.7c0-0.1,0-0.3,0-0.7c0.1-0.7-0.4-1.4-1.2-1.5c-0.1,0-0.3,0-0.4,0
		h-1.2v4.5L99.1,5.7z"/>
</g>
</svg>
