<svg xmlns="http://www.w3.org/2000/svg" viewBox="0 0 96.51 130"><defs><style>.cls-1{fill:#dd003b;}</style></defs><g id="Layer_2" data-name="Layer 2"><g id="Layer_1-2" data-name="Layer 1"><g id="nG2E29.tif"><path class="cls-1" d="M0,65.93Q0,40.47,0,15A14.63,14.63,0,0,1,12.32.17,13.61,13.61,0,0,1,14.79,0H93.57c2.3,0,2.92.64,2.92,3q0,51.56,0,103.11a3.68,3.68,0,0,1-1.26,3c-.87.79-1.69,1.64-2.5,2.49a8,8,0,0,0,0,11.5c.93,1,1.89,1.93,2.87,2.87a2.33,2.33,0,0,1,.73,2.71A2.29,2.29,0,0,1,93.88,130h-81A12.54,12.54,0,0,1,.17,119.56,14.09,14.09,0,0,1,0,117Q0,91.45,0,65.93ZM92.12,54.66q0-24.34,0-48.68c0-1.24-.32-1.64-1.6-1.64q-31.8.06-63.6,0c-1.35,0-1.67.4-1.67,1.71q.06,48.48,0,97c0,1.3.32,1.71,1.67,1.7q31.74-.06,63.47,0c1.7,0,1.7,0,1.7-1.74Zm-71.18,0v-28c0-6.94,0-13.87,0-20.8,0-1.16-.34-1.55-1.49-1.48-1.34.09-2.7,0-4,0A10.87,10.87,0,0,0,6.84,8.14a11.49,11.49,0,0,0-2.45,7.8q0,37.61,0,75.21,0,7.39,0,14.78c0,.46-.26,1.08.21,1.33s.75-.33,1.1-.55a12.13,12.13,0,0,1,6.79-2c2.22,0,4.45,0,6.67,0,1.78,0,1.78,0,1.78-1.79Zm67.78,54.6a2.55,2.55,0,0,0-1.45-.16q-19.42,0-38.85,0c-11.73,0-23.45,0-35.18,0-3.71,0-6.61,1.54-8.13,5.07a8.14,8.14,0,0,0,1.77,9,9.09,9.09,0,0,0,6.84,2.42q37,0,74,0c.31,0,.7.17.94-.21C84.75,120,84.83,114.61,88.72,109.22Z"/><path class="cls-1" d="M29.31,54.53v-39c0-2.34.62-3,2.9-3H84.93c2.66,0,3.19.55,3.19,3.24q0,38.92,0,77.84c0,2.2-.68,2.86-2.91,2.86H32.63c-2.83,0-3.32-.49-3.32-3.37V54.53Zm4.38,0q0,18.06,0,36.11c0,1.21.35,1.56,1.55,1.55q6.75-.11,13.48,0c1.17,0,1.47-.28,1.38-1.46-.65-9-1.23-17.9-1.85-26.85-.15-2.21-.09-4.32,1.2-6.28.74-1.12,1.18-2.43,1.86-3.6a1.45,1.45,0,0,0-.34-2,17.16,17.16,0,0,1-1.33-22.6c2.24-2.9,5.07-5.27,7.67-7.86a2,2,0,0,1,2.32-.35,2,2,0,0,1,1.29,1.95c0,4.77,2.06,8.2,6,10.88a10.57,10.57,0,0,1,1.45,16.14,17.1,17.1,0,0,1-1.76,1.75c-.92.71-.88,1.4-.35,2.34.84,1.48,1.51,3,2.31,4.55a5.43,5.43,0,0,1,.69,3c-.22,3.31-.4,6.61-.61,9.91-.42,6.44-.83,12.87-1.29,19.3-.06.93.2,1.2,1.13,1.19,4.53,0,9.07-.06,13.6,0,1.36,0,1.68-.39,1.68-1.7q-.06-35.91,0-71.82c0-1.69,0-1.7-1.75-1.7H35.42c-1.73,0-1.73,0-1.73,1.71Q33.67,36.57,33.69,54.49ZM58.75,71.37c-1.43,0-2.87,0-4.31,0-1,0-1.17.38-1.11,1.26.44,6.11.87,12.23,1.25,18.35.06.94.42,1.18,1.28,1.16,1.91,0,3.83,0,5.75,0,.89,0,1.19-.3,1.24-1.2q.57-9.18,1.25-18.35c.06-.94-.26-1.26-1.17-1.23C61.54,71.41,60.15,71.37,58.75,71.37ZM60.9,45h0c0,1.3,0,2.61,0,3.92,0,.44-.2,1,.44,1.22s.89-.24,1.23-.57c.77-.77,1.56-1.52,2.3-2.32,3.11-3.36,2.73-7.53-1-10.09A15.92,15.92,0,0,1,57.3,29c-.24-.71-.53-.8-1.07-.24A34.3,34.3,0,0,0,53,32.29,13.17,13.17,0,0,0,55,49.8c.35.3.7.57,1.16.35s.32-.67.33-1c0-2.1,0-4.19,0-6.28.07-3.5-.72-3,3.28-3,.77,0,1.1.29,1.09,1.07C60.88,42.25,60.9,43.64,60.9,45ZM58.79,63H55.51c-2.95,0-2.91,0-2.55,2.93.1.84.43,1.1,1.24,1.09,2.57,0,5.15,0,7.72,0s2.66,0,2.74-2.77c0-.88-.21-1.28-1.16-1.25C61.93,63,60.36,63,58.79,63Zm-.12-4.38h2.75c2.07,0,2.09,0,1.1-1.9-.37-.71-.48-1.87-1.33-2a16.69,16.69,0,0,0-4.94,0c-1,.17-1,1.61-1.57,2.43-.07.11-.1.24-.17.35-.44.74-.32,1.11.63,1.08C56.31,58.58,57.49,58.61,58.67,58.61Z"/></g></g></g></svg>