<svg xmlns="http://www.w3.org/2000/svg" xmlns:xlink="http://www.w3.org/1999/xlink" width="42.957" height="42.955" viewBox="0 0 42.957 42.955"><defs><clipPath id="a"><rect width="42.957" height="42.955" fill="#dd003b"/></clipPath></defs><g clip-path="url(#a)"><path d="M40.809,0H2.149A2.219,2.219,0,0,0,0,2.278v31.24A2.219,2.219,0,0,0,2.149,35.8H14.593L13.162,38.66H10.74a2.148,2.148,0,0,0,0,4.3H32.218a2.148,2.148,0,1,0,0-4.3H29.8L28.365,35.8H40.809a2.219,2.219,0,0,0,2.148-2.278V2.278A2.22,2.22,0,0,0,40.809,0M32.934,40.808a.716.716,0,0,1-.716.716H10.74a.716.716,0,0,1,0-1.432H32.218a.716.716,0,0,1,.716.716M28.2,38.66H14.762L16.194,35.8h10.57Zm12.613-4.3H2.149a.8.8,0,0,1-.716-.846V31.5h4.3a.716.716,0,1,0,0-1.432h-4.3V2.278a.8.8,0,0,1,.716-.846h38.66a.8.8,0,0,1,.716.846V30.069H8.592a.716.716,0,1,0,0,1.432H41.525v2.017a.8.8,0,0,1-.716.846" transform="translate(0)" fill="#dd003b"/><path d="M17.889,32.206H39.367A1.432,1.432,0,0,0,40.8,30.774h4.3a1.432,1.432,0,0,0,1.432-1.432V15.023a1.432,1.432,0,0,0-1.432-1.432H40.8V12.16a1.432,1.432,0,0,0-1.432-1.432H17.889a1.432,1.432,0,0,0-1.432,1.432v1.432h-4.3a1.432,1.432,0,0,0-1.432,1.432V29.342a1.432,1.432,0,0,0,1.432,1.432h4.3a1.432,1.432,0,0,0,1.432,1.432m0-1.432v-1.9l7.87-9.839,7.318,9.313a.716.716,0,1,0,1.125-.885L32.39,25.161l2.682-2.682,4.3,4.3v4Zm27.2-1.432H40.8V15.023h4.3ZM17.889,12.16H39.367V24.75l-3.79-3.79a.716.716,0,0,0-1.012,0L31.5,24.027l-5.172-6.582a.716.716,0,0,0-1.121-.005l-7.316,9.145Zm-5.728,2.864h4.3V29.342h-4.3Z" transform="translate(-7.15 -7.148)" fill="#dd003b"/><path d="M71.524,25.038a2.864,2.864,0,1,0-2.864-2.864,2.864,2.864,0,0,0,2.864,2.864m0-4.3a1.432,1.432,0,1,1-1.432,1.432,1.432,1.432,0,0,1,1.432-1.432" transform="translate(-45.75 -12.867)" fill="#dd003b"/><path d="M62.939,79.386a.716.716,0,1,1-.716.716.716.716,0,0,1,.716-.716" transform="translate(-41.461 -52.897)" fill="#dd003b"/><path d="M71.521,79.386a.716.716,0,1,1-.716.716.716.716,0,0,1,.716-.716" transform="translate(-47.179 -52.897)" fill="#dd003b"/><path d="M80.1,79.386a.716.716,0,1,1-.716.716.716.716,0,0,1,.716-.716" transform="translate(-52.898 -52.897)" fill="#dd003b"/><path d="M54.357,79.386a.716.716,0,1,1-.716.716.716.716,0,0,1,.716-.716" transform="translate(-35.742 -52.897)" fill="#dd003b"/><path d="M45.775,79.386a.716.716,0,1,1-.716.716.716.716,0,0,1,.716-.716" transform="translate(-30.024 -52.897)" fill="#dd003b"/></g></svg>