<svg xmlns="http://www.w3.org/2000/svg" xmlns:xlink="http://www.w3.org/1999/xlink" width="48.109" height="42.692" viewBox="0 0 48.109 42.692"><defs><clipPath id="a"><rect width="48.109" height="42.692" fill="#dd003b"/></clipPath></defs><g clip-path="url(#a)"><path d="M60.324,21.686A5.034,5.034,0,1,0,55.4,26.827a5.039,5.039,0,0,0,4.923-5.141m-8.2.178a3.169,3.169,0,1,1,3.237,3.1,3.173,3.173,0,0,1-3.237-3.1" transform="translate(-34.183 -11.4)" fill="#dd003b"/><path d="M25.62,50.586a5.033,5.033,0,1,0-3.833.385,5,5,0,0,0,3.833-.385m-3.295-1.4a3.17,3.17,0,0,1,.842-6.2,3.192,3.192,0,0,1,.985.135,3.168,3.168,0,0,1-1.827,6.067" transform="translate(-12.381 -27.966)" fill="#dd003b"/><path d="M33.641,88.3a5.033,5.033,0,1,0-1.265-7,5.008,5.008,0,0,0,1.265,7m.266-5.942a3.149,3.149,0,0,1,2.04-1.312,3.219,3.219,0,0,1,.5-.051,3.17,3.17,0,1,1-2.542,1.362" transform="translate(-21.41 -53.818)" fill="#dd003b"/><path d="M76.87,88.325a5.03,5.03,0,1,0-4.123-1.984,5.008,5.008,0,0,0,4.123,1.984m-2.033-7.553a3.169,3.169,0,1,1-.605,4.441,3.147,3.147,0,0,1,.605-4.441" transform="translate(-48.78 -53.228)" fill="#dd003b"/><path d="M86.7,39.993a5.033,5.033,0,1,0,3.845.219,5,5,0,0,0-3.845-.219m3.035,1.9a3.152,3.152,0,1,1-1.442-.316,3.146,3.146,0,0,1,1.442.316" transform="translate(-56.674 -27.008)" fill="#dd003b"/><path d="M63.135,59.869a3.2,3.2,0,1,0-3.127,3.265,3.2,3.2,0,0,0,3.127-3.265m-4.528.1a1.332,1.332,0,1,1,1.361,1.3,1.334,1.334,0,0,1-1.361-1.3" transform="translate(-38.593 -38.592)" fill="#dd003b"/><path d="M47.821,38.093a5.58,5.58,0,0,0-7.89.17,7.35,7.35,0,0,1-5.183,2.279l-4.233.091A21.363,21.363,0,0,0,38.957,9.278a.932.932,0,0,0-1.537,1.055,19.477,19.477,0,1,1-5.75-5.512.932.932,0,1,0,.989-1.58A21.347,21.347,0,0,0,6.582,36.763a21.206,21.206,0,0,0,15.226,5.924l12.98-.281a9.2,9.2,0,0,0,6.489-2.854,3.716,3.716,0,0,1,5.254-.114.932.932,0,1,0,1.29-1.346" transform="translate(0 0)" fill="#dd003b"/><path d="M108.938,19.613a.931.931,0,1,0-.665-.258.939.939,0,0,0,.665.258" transform="translate(-73.445 -12.073)" fill="#dd003b"/></g></svg>