<svg xmlns="http://www.w3.org/2000/svg" viewBox="0 0 150.4 133.47"><defs><style>.cls-1{fill:#fff;}</style></defs><g id="Layer_2" data-name="Layer 2"><g id="Layer_1-2" data-name="Layer 1"><path class="cls-1" d="M81.73,32.16A15.74,15.74,0,1,0,66.34,48.23,15.76,15.76,0,0,0,81.73,32.16Zm-25.64.55A9.91,9.91,0,1,1,66.21,42.4,9.92,9.92,0,0,1,56.09,32.71Z"/><path class="cls-1" d="M41.39,70.72A15.56,15.56,0,1,0,34.3,72.6a15.64,15.64,0,0,0,7.09-1.88Zm-10.3-4.38a9.9,9.9,0,0,1-1.83-18.21A10,10,0,0,1,33.72,47a9.91,9.91,0,1,1-2.63,19.39Z"/><path class="cls-1" d="M38.24,107.8a15.74,15.74,0,1,0-4-21.9,15.66,15.66,0,0,0,4,21.9Zm.83-18.58a9.85,9.85,0,0,1,6.38-4.1A10.45,10.45,0,0,1,47,85a9.91,9.91,0,1,1-8,4.26Z"/><path class="cls-1" d="M87.82,109.73a15.73,15.73,0,1,0-12.89-6.21,15.67,15.67,0,0,0,12.89,6.21ZM81.46,86.11A9.91,9.91,0,1,1,79.57,100,9.89,9.89,0,0,1,81.46,86.11Z"/><path class="cls-1" d="M93.89,40.6a15.74,15.74,0,0,0,5.5,30.59,16,16,0,0,0,4.86-.88A15.73,15.73,0,1,0,93.89,40.6Zm9.48,5.93a9.9,9.9,0,1,1-7.56-.43,10.13,10.13,0,0,1,3.06-.56A9.84,9.84,0,0,1,103.37,46.53Z"/><path class="cls-1" d="M76.73,66.52A10,10,0,1,0,67,76.73,10,10,0,0,0,76.73,66.52Zm-14.16.31a4.17,4.17,0,1,1,4.26,4.07,4.17,4.17,0,0,1-4.26-4.07Z"/><path class="cls-1" d="M149.51,119.09a17.46,17.46,0,0,0-24.67.53,23,23,0,0,1-16.21,7.13L95.4,127a66.77,66.77,0,0,0,26.39-98,2.91,2.91,0,1,0-4.8,3.3A60.88,60.88,0,1,1,99,15.07a2.91,2.91,0,1,0,3.09-4.94,66.74,66.74,0,0,0-81.52,104.8,66.32,66.32,0,0,0,47.6,18.53l40.58-.88a28.81,28.81,0,0,0,20.29-8.92,11.62,11.62,0,0,1,16.42-.36,2.92,2.92,0,0,0,4-4.21Z"/><path class="cls-1" d="M111,23.57a2.91,2.91,0,0,0,2-5,3,3,0,0,0-2.08-.81,2.91,2.91,0,1,0,.12,5.82Z"/></g></g></svg>